<svg xmlns="http://www.w3.org/2000/svg" viewBox="0 0 366.08 354.26"><title>CAT</title><g id="Layer_1" data-name="Layer 1"><path d="M481,272.35a131.92,131.92,0,0,1,7.12,42.86c0,75.62-63.76,136.92-142.41,136.92s-142.41-61.3-142.41-136.92a131.92,131.92,0,0,1,7.12-42.86l-24.18-90.26a2.27,2.27,0,0,1,2.78-2.78l79,21.16a147.31,147.31,0,0,1,155.47,0l79-21.16a2.27,2.27,0,0,1,2.78,2.78Z" transform="translate(-163.14 -102.87)" style="fill:#ffa200;stroke:#fff;stroke-miterlimit:10;stroke-width:10px"/></g><g id="Layer_2" data-name="Layer 2"><circle cx="124.29" cy="177.67" r="36.3" style="fill:#fff"/><circle cx="241.35" cy="177.13" r="35.76" style="fill:#fff"/><path d="M335,348a13.23,13.23,0,0,1-2.24-3.61A15.62,15.62,0,0,0,335,348Z" transform="translate(-163.14 -102.87)" style="fill:#fff"/><path d="M340.73,352a.11.11,0,0,1-.08,0c0-.65,0-1.27,0-1.86C340.69,350.78,340.7,351.41,340.73,352Z" transform="translate(-163.14 -102.87)" style="fill:#fff"/><path d="M350.74,352.12l-.09,0c0-.69,0-1.36,0-2C350.69,350.81,350.71,351.47,350.74,352.12Z" transform="translate(-163.14 -102.87)" style="fill:#fff"/><path d="M316,388.22V399c-.51.17-1,.34-1.5.49a51.74,51.74,0,0,1-67.19-49.33,5,5,0,1,1,10,0,41.75,41.75,0,0,0,54.2,39.79c.9-.28,1.84-.62,2.78-1C314.87,388.72,315.43,388.48,316,388.22Z" transform="translate(-163.14 -102.87)" style="fill:#fff"/><path d="M319.22,386.62a13.14,13.14,0,0,1-2.58,1.31C317.52,387.52,318.38,387.08,319.22,386.62Z" transform="translate(-163.14 -102.87)" style="fill:#fff"/><path d="M340.73,352a.11.11,0,0,1-.08,0c0-.65,0-1.27,0-1.86C340.69,350.78,340.7,351.41,340.73,352Z" transform="translate(-163.14 -102.87)" style="fill:#fff"/><path d="M350.69,350.15c0,.66,0,1.32,0,2l-.09,0C350.68,351.47,350.69,350.8,350.69,350.15Z" transform="translate(-163.14 -102.87)" style="fill:#fff"/><path d="M444.07,350.15a51.75,51.75,0,0,1-51.69,51.69,51.23,51.23,0,0,1-15.93-2.51c-.48-.15-1-.31-1.45-.49V388.06c.29.14.59.27.88.39a36,36,0,0,0,3.63,1.36,41.71,41.71,0,0,0,54.56-39.66,5,5,0,0,1,10,0Z" transform="translate(-163.14 -102.87)" style="fill:#fff"/></g><g id="Layer_3" data-name="Layer 3"><path d="M425,133v67.09c0,11.74-35.77,21.27-79.51,21.27S266,211.83,266,200.09V133Z" transform="translate(-163.14 -102.87)" style="fill:#ffa200;stroke:#fff;stroke-miterlimit:10;stroke-width:10px"/><path d="M522.8,131.64,346.38,152.22a1.61,1.61,0,0,1-.37,0L169.56,131.64a1.61,1.61,0,0,1,0-3.19L346,107.88a1.61,1.61,0,0,1,.37,0L522.8,128.45A1.61,1.61,0,0,1,522.8,131.64Z" transform="translate(-163.14 -102.87)" style="fill:#ffa200;stroke:#fff;stroke-miterlimit:10;stroke-width:10px"/><path d="M332.18,342.81a12.56,12.56,0,0,1-.54-2.81h0A13.8,13.8,0,0,0,332.18,342.81Z" transform="translate(-163.14 -102.87)" style="fill:#fff"/><path d="M316.61,387.94l-.45.21-.16.07v-.07Z" transform="translate(-163.14 -102.87)" style="fill:#fff"/><path d="M340.63,352.26c0,.11,0,.22,0,.34a41.31,41.31,0,0,1-2.3,11.43,41.78,41.78,0,0,1-18,22c-.33.19-.66.39-1,.57.29-.19.59-.38.92-.57a41.85,41.85,0,0,0,18.07-22,41.34,41.34,0,0,0,2.32-11.43C340.61,352.45,340.62,352.37,340.63,352.26Z" transform="translate(-163.14 -102.87)" style="fill:#fff"/><path d="M340.65,352a.49.49,0,0,1,0,.12,13.76,13.76,0,0,1-5-3.37A14.16,14.16,0,0,0,340.65,352Z" transform="translate(-163.14 -102.87)" style="fill:#fff"/><path d="M340.73,352a.11.11,0,0,1-.08,0c0-.65,0-1.27,0-1.86C340.69,350.78,340.7,351.41,340.73,352Z" transform="translate(-163.14 -102.87)" style="fill:#fff"/><path d="M375,388.06v10.78c-1-.36-2-.76-3.07-1.21a47.8,47.8,0,0,1-5.45-2.73,51.85,51.85,0,0,1-20.79-22.56,51.9,51.9,0,0,1-20.29,22.27,54.6,54.6,0,0,1-7.44,3.65c-.61.24-1.21.46-1.8.67L316,399V388.22l.16-.07.45-.21h0a13.14,13.14,0,0,0,2.58-1.31l.07,0c.34-.18.67-.38,1-.57a41.78,41.78,0,0,0,18-22,41.31,41.31,0,0,0,2.3-11.43c0-.12,0-.23,0-.34s0-.08,0-.13a.49.49,0,0,0,0-.12.11.11,0,0,0,.08,0c0-.63,0-1.26,0-1.89,0,.59,0,1.21,0,1.86a14.16,14.16,0,0,1-5-3.25,3.15,3.15,0,0,1-.25-.28c-.16-.17-.32-.35-.47-.53a15.62,15.62,0,0,1-2.24-3.61l-.23-.57c-.12-.32-.23-.64-.32-1a13.8,13.8,0,0,1-.52-2.81,1.79,1.79,0,0,1,0-.23c0-.31,0-.62,0-.94a14.1,14.1,0,1,1,28.19.13c0,.27,0,.54,0,.81a1.64,1.64,0,0,1,0,.23c-.4,5.52-4,9.85-9,12.12,0-.65,0-1.31,0-2,0,.65,0,1.32,0,2l.09,0,0,.56a41.6,41.6,0,0,0,20.74,33.58C372.65,386.92,373.82,387.52,375,388.06Z" transform="translate(-163.14 -102.87)" style="fill:#fff"/><path d="M350.74,352.12l-.09,0c0-.69,0-1.36,0-2C350.69,350.81,350.71,351.47,350.74,352.12Z" transform="translate(-163.14 -102.87)" style="fill:#fff"/><path d="M375,398.84v3.28a29.5,29.5,0,1,1-59,0V399l.16-.06c.59-.21,1.19-.43,1.8-.67a54.6,54.6,0,0,0,7.44-3.65,51.9,51.9,0,0,0,20.29-22.27,51.85,51.85,0,0,0,20.79,22.56,47.8,47.8,0,0,0,5.45,2.73C373,398.08,374,398.48,375,398.84Z" transform="translate(-163.14 -102.87)" style="fill:#fff"/></g></svg>